<svg width="23" height="23" viewBox="0 0 23 23" fill="none" xmlns="http://www.w3.org/2000/svg">
<circle cx="11.5" cy="11.5" r="10.7812" fill="#F0B90B" stroke="#F7DA7C" stroke-width="1.4375"/>
<path d="M7.97124 6.84679L11.5017 4.79175L15.0322 6.84679L13.7342 7.60598L11.5017 6.31012L9.26921 7.60598L7.97124 6.84679ZM15.0322 9.43849L13.7342 8.67931L11.5017 9.97517L9.26921 8.67931L7.97124 9.43849V10.9569L10.2037 12.2527V14.8444L11.5017 15.6036L12.7997 14.8444V12.2527L15.0322 10.9569V9.43849ZM15.0322 13.5486V12.0302L13.7342 12.7894V14.3077L15.0322 13.5486ZM15.9537 14.0852L13.7212 15.3811V16.8995L17.2517 14.8444V10.7343L15.9537 11.4935V14.0852ZM14.6558 8.14264L15.9537 8.90183V10.4202L17.2517 9.66102V8.14264L15.9537 7.38346L14.6558 8.14264ZM10.2037 15.9309V17.4493L11.5017 18.2084L12.7997 17.4493V15.9309L11.5017 16.69L10.2037 15.9309ZM7.97124 13.5486L9.26921 14.3077V12.7894L7.97124 12.0302V13.5486ZM10.2037 8.14264L11.5017 8.90183L12.7997 8.14264L11.5017 7.38346L10.2037 8.14264ZM7.04967 8.90183L8.34764 8.14264L7.04967 7.38346L5.75171 8.14264V9.66102L7.04967 10.4202V8.90183ZM7.04967 11.4935L5.75171 10.7343V14.8444L9.28217 16.8995V15.3811L7.04967 14.0852V11.4935Z" fill="white"/>
</svg>
