<svg width="23" height="23" viewBox="0 0 23 23" fill="none" xmlns="http://www.w3.org/2000/svg">
<path d="M23 11.5C23 17.8513 17.8513 23 11.5 23C5.14873 23 0 17.8513 0 11.5C0 5.14873 5.14873 0 11.5 0C17.8513 0 23 5.14873 23 11.5Z" fill="#6E7CCA"/>
<path fill-rule="evenodd" clip-rule="evenodd" d="M11.5 21.5625C17.0574 21.5625 21.5625 17.0574 21.5625 11.5C21.5625 5.94263 17.0574 1.4375 11.5 1.4375C5.94263 1.4375 1.4375 5.94263 1.4375 11.5C1.4375 17.0574 5.94263 21.5625 11.5 21.5625ZM11.5 23C17.8513 23 23 17.8513 23 11.5C23 5.14873 17.8513 0 11.5 0C5.14873 0 0 5.14873 0 11.5C0 17.8513 5.14873 23 11.5 23Z" fill="#919BD7"/>
<path d="M11.2146 13.9682L11.3046 14.0579L15.4226 11.6238L11.3046 4.79102L11.2146 5.09674V13.9682Z" fill="#FFFDFE"/>
<path d="M11.305 14.058V4.79102L7.18701 11.6238L11.305 14.058Z" fill="#B0E7FF"/>
<path d="M11.2546 18.0599L11.3053 18.208L15.4258 12.405L11.3053 14.838L11.2546 14.8998V18.0599Z" fill="#FFFDFF"/>
<path d="M7.18701 12.405L11.305 18.208V14.838L7.18701 12.405Z" fill="#B0E7FF"/>
<path d="M11.3054 9.75269V14.0586L15.4234 11.6245L11.3054 9.75269Z" fill="#FFFDFF"/>
<path d="M11.3049 9.75269L7.18701 11.6245L11.3049 14.0585V9.75269Z" fill="#C8F7F7"/>
</svg>
