<svg width="12" height="21" viewBox="0 0 12 21" fill="none" xmlns="http://www.w3.org/2000/svg">
<path d="M6.24719 21C6.72659 21 7.13109 20.8348 7.46067 20.5043C7.79026 20.1738 7.95506 19.7682 7.95506 19.2876C7.95506 18.8069 7.79026 18.4013 7.46067 18.0708C7.13109 17.7403 6.72659 17.5751 6.24719 17.5751C5.76779 17.5751 5.3633 17.7403 5.03371 18.0708C4.70412 18.4013 4.53933 18.8069 4.53933 19.2876C4.53933 19.7682 4.70412 20.1738 5.03371 20.5043C5.3633 20.8348 5.76779 21 6.24719 21ZM4.67416 14.4206H7.32584C7.32584 13.6395 7.42322 12.926 7.61798 12.28C7.81273 11.6341 8.41948 10.8906 9.4382 10.0494C10.367 9.26824 11.0262 8.50215 11.4157 7.75107C11.8052 7 12 6.17382 12 5.27253C12 3.68026 11.4831 2.40343 10.4494 1.44206C9.41573 0.480686 8.04494 0 6.33708 0C4.86891 0 3.57303 0.368025 2.44944 1.10408C1.32584 1.84013 0.509363 2.85408 0 4.14592L2.38202 5.04721C2.71161 4.20601 3.20599 3.55257 3.86517 3.08691C4.52434 2.62124 5.30337 2.38841 6.20225 2.38841C7.22097 2.38841 8.04494 2.66631 8.67416 3.2221C9.30337 3.7779 9.61798 4.49142 9.61798 5.36266C9.61798 6.0236 9.42322 6.64699 9.03371 7.23283C8.64419 7.81867 8.0749 8.42704 7.32584 9.05794C6.42696 9.83905 5.7603 10.6127 5.32584 11.3788C4.89138 12.1448 4.67416 13.1588 4.67416 14.4206Z" fill="#535353"/>
</svg>
