<svg width="21" height="26" viewBox="0 0 21 26" fill="none" xmlns="http://www.w3.org/2000/svg">
<path d="M10.769 25.077C7.89719 24.359 5.53822 22.6924 3.69207 20.077C1.84593 17.4616 0.922852 14.595 0.922852 11.477V4.15397L10.769 0.46167L20.6151 4.15397V11.477C20.6151 14.595 19.692 17.4616 17.8459 20.077C15.9997 22.6924 13.6408 24.359 10.769 25.077ZM10.769 23.1693C12.9433 22.4514 14.7433 21.1334 16.169 19.2155C17.5946 17.2975 18.4305 15.1488 18.6766 12.7693H10.769V2.46166L2.769 5.44627V11.477C2.769 11.7232 2.77413 11.9334 2.78438 12.1078C2.79464 12.2821 2.82028 12.5027 2.86131 12.7693H10.769V23.1693Z" fill="#272727"/>
</svg>
