<svg width="23" height="23" viewBox="0 0 23 23" fill="none" xmlns="http://www.w3.org/2000/svg">
<path d="M23 11.5C23 17.8513 17.8513 23 11.5 23C5.14873 23 0 17.8513 0 11.5C0 5.14873 5.14873 0 11.5 0C17.8513 0 23 5.14873 23 11.5Z" fill="url(#paint0_linear_530_1646)"/>
<path fill-rule="evenodd" clip-rule="evenodd" d="M18.6153 4.38471C14.6856 0.455059 8.31439 0.45506 4.38474 4.38471C0.455086 8.31436 0.455086 14.6856 4.38474 18.6152C8.31439 22.5449 14.6856 22.5449 18.6153 18.6152C22.5449 14.6856 22.5449 8.31436 18.6153 4.38471ZM19.6317 3.36824C15.1407 -1.12279 7.8593 -1.12278 3.36827 3.36824C-1.12276 7.85927 -1.12276 15.1407 3.36827 19.6317C7.8593 24.1227 15.1407 24.1227 19.6317 19.6317C24.1228 15.1407 24.1228 7.85927 19.6317 3.36824Z" fill="url(#paint1_linear_530_1646)"/>
<g style="mix-blend-mode:screen">
<path d="M7.66306 14.3812C7.69901 14.3416 7.74283 14.3099 7.79172 14.2883C7.84061 14.2666 7.89349 14.2554 7.94697 14.2554L16.6977 14.2626C16.7257 14.2625 16.7534 14.2685 16.7788 14.2802C16.8042 14.292 16.8268 14.3091 16.8448 14.3305C16.8629 14.3519 16.8761 14.3769 16.8835 14.4039C16.8908 14.4309 16.8922 14.4592 16.8875 14.4868C16.8814 14.5237 16.8648 14.558 16.8397 14.5856L14.9763 16.6449C14.9404 16.6845 14.8965 16.7162 14.8475 16.7379C14.7986 16.7597 14.7456 16.7709 14.6921 16.771L5.94129 16.7638C5.90402 16.7637 5.86758 16.7527 5.83644 16.7322C5.80529 16.7117 5.78079 16.6826 5.76592 16.6484C5.75093 16.6143 5.74615 16.5765 5.75214 16.5396C5.75813 16.5028 5.77465 16.4684 5.7997 16.4407L7.66306 14.3815V14.3812ZM16.839 12.6669C16.8641 12.6946 16.8807 12.7289 16.8868 12.7658C16.8928 12.8027 16.888 12.8405 16.873 12.8747C16.858 12.909 16.8334 12.9381 16.8021 12.9586C16.7709 12.9791 16.7344 12.9902 16.697 12.9904L7.94661 12.9976C7.89313 12.9976 7.84023 12.9864 7.79134 12.9647C7.74244 12.9431 7.69862 12.9114 7.6627 12.8718L5.79934 10.8111C5.7807 10.7904 5.76675 10.7659 5.75843 10.7393C5.75011 10.7127 5.74762 10.6846 5.75113 10.6569C5.75465 10.6293 5.76408 10.6027 5.77878 10.579C5.79349 10.5553 5.81313 10.5351 5.83636 10.5197C5.86753 10.4991 5.90397 10.488 5.94129 10.4877L14.6921 10.4805C14.7456 10.4805 14.7986 10.4917 14.8475 10.5135C14.8964 10.5353 14.9402 10.5672 14.976 10.607L16.839 12.6673V12.6669ZM7.66306 6.83428C7.69898 6.79466 7.7428 6.763 7.7917 6.74133C7.84059 6.71967 7.89348 6.70848 7.94697 6.7085L16.6977 6.71568C16.7257 6.7156 16.7533 6.72162 16.7787 6.73334C16.804 6.74506 16.8265 6.76219 16.8446 6.78352C16.8626 6.80486 16.8758 6.82988 16.8831 6.85684C16.8905 6.88379 16.8919 6.91203 16.8871 6.93957C16.8812 6.97641 16.8647 7.01074 16.8397 7.0384L14.9763 9.09762C14.9403 9.13722 14.8964 9.16886 14.8475 9.19052C14.7985 9.21218 14.7456 9.22338 14.6921 9.2234L5.94129 9.21622C5.91338 9.21625 5.8858 9.21018 5.86048 9.19844C5.83516 9.1867 5.81271 9.16956 5.7947 9.14824C5.77669 9.12691 5.76357 9.10191 5.75624 9.07498C5.74891 9.04804 5.74755 9.01983 5.75226 8.99232C5.75825 8.95551 5.77472 8.9212 5.7997 8.8935L7.66306 6.83428Z" fill="white"/>
</g>
<defs>
<linearGradient id="paint0_linear_530_1646" x1="0.697898" y1="23.5011" x2="24.5675" y2="2.0191" gradientUnits="userSpaceOnUse">
<stop stop-color="#9945FF"/>
<stop offset="0.2" stop-color="#7962E7"/>
<stop offset="1" stop-color="#00D18C"/>
</linearGradient>
<linearGradient id="paint1_linear_530_1646" x1="27.6243" y1="10.6522" x2="-4.44413" y2="8.96386" gradientUnits="userSpaceOnUse">
<stop stop-color="#9945FF"/>
<stop offset="0.2" stop-color="#7962E7"/>
<stop offset="1" stop-color="#00D18C"/>
</linearGradient>
</defs>
</svg>
