<svg width="28" height="28" viewBox="0 0 28 28" fill="none" xmlns="http://www.w3.org/2000/svg">
<path d="M13.9772 18.0778C15.167 18.0778 16.1824 17.6573 17.0235 16.8162C17.8645 15.9751 18.2851 14.9597 18.2851 13.7699C18.2851 12.5801 17.8645 11.5646 17.0235 10.7236C16.1824 9.8825 15.167 9.46196 13.9772 9.46196C12.7874 9.46196 11.7719 9.8825 10.9308 10.7236C10.0898 11.5646 9.66924 12.5801 9.66924 13.7699C9.66924 14.9597 10.0898 15.9751 10.9308 16.8162C11.7719 17.6573 12.7874 18.0778 13.9772 18.0778ZM13.9772 19.924C12.2745 19.924 10.8231 19.324 9.62308 18.124C8.42302 16.9239 7.82299 15.4725 7.82299 13.7699C7.82299 12.0672 8.42302 10.6159 9.62308 9.41581C10.8231 8.21574 12.2745 7.61571 13.9772 7.61571C15.6798 7.61571 17.1312 8.21574 18.3312 9.41581C19.5313 10.6159 20.1313 12.0672 20.1313 13.7699C20.1313 15.4725 19.5313 16.9239 18.3312 18.124C17.1312 19.324 15.6798 19.924 13.9772 19.924ZM1.36111 14.693C1.09443 14.693 0.873908 14.6058 0.69954 14.4315C0.525172 14.2571 0.437988 14.0366 0.437988 13.7699C0.437988 13.5032 0.525172 13.2827 0.69954 13.1083C0.873908 12.9339 1.09443 12.8468 1.36111 12.8468H4.4382C4.70488 12.8468 4.9254 12.9339 5.09977 13.1083C5.27414 13.2827 5.36132 13.5032 5.36132 13.7699C5.36132 14.0366 5.27414 14.2571 5.09977 14.4315C4.9254 14.6058 4.70488 14.693 4.4382 14.693H1.36111ZM23.5161 14.693C23.2494 14.693 23.0289 14.6058 22.8545 14.4315C22.6802 14.2571 22.593 14.0366 22.593 13.7699C22.593 13.5032 22.6802 13.2827 22.8545 13.1083C23.0289 12.9339 23.2494 12.8468 23.5161 12.8468H26.5932C26.8599 12.8468 27.0804 12.9339 27.2548 13.1083C27.4291 13.2827 27.5163 13.5032 27.5163 13.7699C27.5163 14.0366 27.4291 14.2571 27.2548 14.4315C27.0804 14.6058 26.8599 14.693 26.5932 14.693H23.5161ZM13.9772 5.15405C13.7105 5.15405 13.49 5.06686 13.3156 4.89249C13.1412 4.71813 13.054 4.4976 13.054 4.23092V1.15384C13.054 0.887157 13.1412 0.666633 13.3156 0.492265C13.49 0.317897 13.7105 0.230713 13.9772 0.230713C14.2438 0.230713 14.4644 0.317897 14.6387 0.492265C14.8131 0.666633 14.9003 0.887157 14.9003 1.15384V4.23092C14.9003 4.4976 14.8131 4.71813 14.6387 4.89249C14.4644 5.06686 14.2438 5.15405 13.9772 5.15405ZM13.9772 27.309C13.7105 27.309 13.49 27.2219 13.3156 27.0475C13.1412 26.8731 13.054 26.6526 13.054 26.3859V23.3088C13.054 23.0422 13.1412 22.8216 13.3156 22.6473C13.49 22.4729 13.7105 22.3857 13.9772 22.3857C14.2438 22.3857 14.4644 22.4729 14.6387 22.6473C14.8131 22.8216 14.9003 23.0422 14.9003 23.3088V26.3859C14.9003 26.6526 14.8131 26.8731 14.6387 27.0475C14.4644 27.2219 14.2438 27.309 13.9772 27.309ZM6.59216 7.67726L4.83822 5.95409C4.65359 5.76946 4.56641 5.54894 4.57667 5.29252C4.58692 5.03609 4.67411 4.81557 4.83822 4.63094C5.02284 4.44632 5.24337 4.354 5.49979 4.354C5.75621 4.354 5.97674 4.44632 6.16136 4.63094L7.88453 6.38488C8.04864 6.5695 8.1307 6.7849 8.1307 7.03107C8.1307 7.27723 8.04864 7.48237 7.88453 7.64648C7.72042 7.83111 7.51015 7.92342 7.25373 7.92342C6.9973 7.92342 6.77678 7.84137 6.59216 7.67726ZM21.7929 22.9088L20.0698 21.1549C19.9057 20.9703 19.8236 20.7497 19.8236 20.4933C19.8236 20.2369 19.9159 20.0266 20.1006 19.8625C20.2647 19.6779 20.4698 19.5856 20.716 19.5856C20.9621 19.5856 21.1775 19.6779 21.3622 19.8625L23.1161 21.5857C23.3007 21.7703 23.3879 21.9908 23.3776 22.2472C23.3674 22.5037 23.2802 22.7242 23.1161 22.9088C22.9315 23.0934 22.7109 23.1858 22.4545 23.1858C22.1981 23.1858 21.9776 23.0934 21.7929 22.9088ZM20.0698 7.67726C19.8852 7.49263 19.7928 7.27723 19.7928 7.03107C19.7928 6.7849 19.8852 6.5695 20.0698 6.38488L21.7929 4.63094C21.9776 4.44632 22.1981 4.35913 22.4545 4.36939C22.7109 4.37965 22.9315 4.46683 23.1161 4.63094C23.3007 4.81557 23.393 5.03609 23.393 5.29252C23.393 5.54894 23.3007 5.76946 23.1161 5.95409L21.3622 7.67726C21.198 7.84137 20.9878 7.92342 20.7314 7.92342C20.4749 7.92342 20.2544 7.84137 20.0698 7.67726ZM4.83822 22.9088C4.65359 22.7242 4.56128 22.5037 4.56128 22.2472C4.56128 21.9908 4.65359 21.7703 4.83822 21.5857L6.59216 19.8625C6.77678 19.6779 6.99218 19.5856 7.23834 19.5856C7.48451 19.5856 7.69991 19.6779 7.88453 19.8625C8.06916 20.0471 8.16147 20.2625 8.16147 20.5087C8.16147 20.7549 8.06916 20.9703 7.88453 21.1549L6.16136 22.9088C5.97674 23.0934 5.75621 23.1806 5.49979 23.1704C5.24337 23.1601 5.02284 23.0729 4.83822 22.9088Z" fill="#363636"/>
</svg>
