<svg width="140" height="42" viewBox="0 0 140 42" fill="none" xmlns="http://www.w3.org/2000/svg">
<path d="M61.8866 14.4817H64.7421L58.6997 27.2805H57.7818L51.7139 14.4817H54.5694L58.2408 22.7677L61.8866 14.4817ZM77.9309 21.6204H68.5995C68.7695 22.6403 69.2199 23.4476 69.9508 24.0425C70.6987 24.6204 71.608 24.9094 72.6788 24.9094C74.0046 24.9094 75.2199 24.4165 76.3247 23.4306L77.5994 25.2663C76.1887 26.6091 74.523 27.2805 72.6023 27.2805C70.6987 27.2805 69.1009 26.6601 67.8092 25.4193C66.5174 24.1615 65.8715 22.6063 65.8715 20.7536C65.8375 18.9519 66.4664 17.4052 67.7582 16.1134C69.0499 14.8046 70.5797 14.1672 72.3474 14.2012C73.9961 14.2012 75.3728 14.7536 76.4776 15.8585C77.5824 16.9463 78.1349 18.306 78.1349 19.9377C78.1349 20.4306 78.0669 20.9916 77.9309 21.6204ZM68.6505 19.5298H75.4578C75.4408 18.595 75.1264 17.8556 74.5145 17.3117C73.9026 16.7508 73.1462 16.4703 72.2454 16.4703C71.3615 16.4703 70.5882 16.7508 69.9253 17.3117C69.2794 17.8556 68.8545 18.595 68.6505 19.5298ZM92.1399 19.1729V27H89.4628V19.5298C89.4628 18.663 89.2079 17.9661 88.698 17.4392C88.2051 16.8953 87.5507 16.6233 86.7348 16.6233C85.902 16.6233 85.2136 16.8953 84.6697 17.4392C84.1428 17.9831 83.8793 18.68 83.8793 19.5298V27H81.2023V14.4817H83.7008V15.7055C84.6527 14.7027 85.902 14.2012 87.4487 14.2012C88.8934 14.2012 90.0322 14.6517 90.8651 15.5525C91.7149 16.4533 92.1399 17.6601 92.1399 19.1729ZM94.6944 24.8584L96.2241 23.1757C97.3629 24.3655 98.5357 24.9604 99.7425 24.9604C100.337 24.9604 100.822 24.8414 101.196 24.6034C101.57 24.3485 101.757 24 101.757 23.5581C101.757 23.2182 101.629 22.9462 101.374 22.7422C101.119 22.5213 100.66 22.2748 99.9975 22.0029L98.7227 21.4675C97.5839 20.9916 96.751 20.4816 96.2241 19.9377C95.7142 19.3768 95.4593 18.6715 95.4593 17.8216C95.4593 16.7168 95.8672 15.8415 96.6831 15.1956C97.5159 14.5327 98.5782 14.2012 99.87 14.2012C101.672 14.2012 103.116 14.8471 104.204 16.1389L102.751 17.7961C101.935 16.9463 100.958 16.5213 99.819 16.5213C98.6802 16.5213 98.1108 16.9208 98.1108 17.7196C98.1108 18.0256 98.2298 18.289 98.4677 18.51C98.7057 18.714 99.1391 18.9434 99.768 19.1984L100.966 19.6828C102.173 20.1927 103.04 20.7366 103.567 21.3145C104.111 21.8754 104.383 22.5893 104.383 23.4561C104.383 24.6629 103.941 25.6062 103.057 26.2861C102.173 26.949 101.068 27.2805 99.7425 27.2805C97.6179 27.2805 95.9352 26.4731 94.6944 24.8584ZM107.342 21.7479V14.4817H109.994V21.9519C109.994 22.8017 110.257 23.4901 110.784 24.017C111.311 24.5439 111.991 24.8074 112.824 24.8074C113.623 24.8074 114.277 24.5439 114.787 24.017C115.314 23.4901 115.577 22.8017 115.577 21.9519V14.4817H118.254V21.7479C118.254 23.3966 117.736 24.7309 116.699 25.7507C115.679 26.7705 114.387 27.2805 112.824 27.2805C111.226 27.2805 109.909 26.779 108.872 25.7762C107.852 24.7564 107.342 23.4136 107.342 21.7479ZM120.837 24.8584L122.367 23.1757C123.506 24.3655 124.679 24.9604 125.885 24.9604C126.48 24.9604 126.965 24.8414 127.339 24.6034C127.713 24.3485 127.9 24 127.9 23.5581C127.9 23.2182 127.772 22.9462 127.517 22.7422C127.262 22.5213 126.803 22.2748 126.14 22.0029L124.866 21.4675C123.727 20.9916 122.894 20.4816 122.367 19.9377C121.857 19.3768 121.602 18.6715 121.602 17.8216C121.602 16.7168 122.01 15.8415 122.826 15.1956C123.659 14.5327 124.721 14.2012 126.013 14.2012C127.815 14.2012 129.259 14.8471 130.347 16.1389L128.894 17.7961C128.078 16.9463 127.101 16.5213 125.962 16.5213C124.823 16.5213 124.254 16.9208 124.254 17.7196C124.254 18.0256 124.373 18.289 124.611 18.51C124.849 18.714 125.282 18.9434 125.911 19.1984L127.109 19.6828C128.316 20.1927 129.183 20.7366 129.71 21.3145C130.254 21.8754 130.526 22.5893 130.526 23.4561C130.526 24.6629 130.084 25.6062 129.2 26.2861C128.316 26.949 127.211 27.2805 125.885 27.2805C123.761 27.2805 122.078 26.4731 120.837 24.8584Z" fill="#363636"/>
<path d="M133.842 26.7195C133.451 26.3456 133.256 25.8782 133.256 25.3173C133.256 24.7564 133.451 24.289 133.842 23.915C134.233 23.5241 134.709 23.3286 135.27 23.3286C135.831 23.3286 136.298 23.5156 136.672 23.8895C137.046 24.2635 137.233 24.7394 137.233 25.3173C137.233 25.8782 137.046 26.3456 136.672 26.7195C136.298 27.0935 135.831 27.2805 135.27 27.2805C134.709 27.2805 134.233 27.0935 133.842 26.7195Z" fill="#FF4900"/>
<path fill-rule="evenodd" clip-rule="evenodd" d="M8.31067 0H33.0052C37.5951 0 41.3159 3.72081 41.3159 8.31067V33.0052C41.3159 37.5951 37.5951 41.3159 33.0052 41.3159H8.31067C3.72082 41.3159 0 37.5951 0 33.0052V8.31067C0 3.72082 3.72081 0 8.31067 0ZM8.31067 4.74896C6.34359 4.74896 4.74896 6.34359 4.74896 8.31067V33.0052C4.74896 34.9723 6.34359 36.567 8.31067 36.567H33.0052C34.9723 36.567 36.567 34.9723 36.567 33.0052V8.31067C36.567 6.34359 34.9723 4.74896 33.0052 4.74896H8.31067Z" fill="url(#paint0_linear_992_4031)"/>
<path d="M17.5957 20.6757C17.5957 22.7411 15.9213 24.4155 13.8559 24.4155C11.7904 24.4155 10.1161 22.7411 10.1161 20.6757C10.1161 18.6102 11.7904 16.9359 13.8559 16.9359C15.9213 16.9359 17.5957 18.6102 17.5957 20.6757Z" fill="url(#paint1_linear_992_4031)"/>
<path d="M31.3059 20.6757C31.3059 22.7411 29.6315 24.4155 27.5661 24.4155C25.5007 24.4155 23.8263 22.7411 23.8263 20.6757C23.8263 18.6102 25.5007 16.9359 27.5661 16.9359C29.6315 16.9359 31.3059 18.6102 31.3059 20.6757Z" fill="url(#paint2_linear_992_4031)"/>
<defs>
<linearGradient id="paint0_linear_992_4031" x1="0" y1="0" x2="41.3159" y2="41.3159" gradientUnits="userSpaceOnUse">
<stop stop-color="#FF4900"/>
<stop offset="1" stop-color="#FF6C36"/>
</linearGradient>
<linearGradient id="paint1_linear_992_4031" x1="0" y1="0" x2="41.3159" y2="41.3159" gradientUnits="userSpaceOnUse">
<stop stop-color="#FF4900"/>
<stop offset="1" stop-color="#FF6C36"/>
</linearGradient>
<linearGradient id="paint2_linear_992_4031" x1="0" y1="0" x2="41.3159" y2="41.3159" gradientUnits="userSpaceOnUse">
<stop stop-color="#FF4900"/>
<stop offset="1" stop-color="#FF6C36"/>
</linearGradient>
</defs>
</svg>
